<?xml version="1.0" standalone="no"?>
<!DOCTYPE svg PUBLIC "-//W3C//DTD SVG 20010904//EN"
 "http://www.w3.org/TR/2001/REC-SVG-20010904/DTD/svg10.dtd">
<svg version="1.0" xmlns="http://www.w3.org/2000/svg"
 width="100.000000pt" height="100.000000pt" viewBox="0 0 100.000000 100.000000"
 preserveAspectRatio="xMidYMid meet">

<g transform="translate(0.000000,100.000000) scale(0.100000,-0.100000)"
fill="#000000" stroke="none">
<path d="M0 500 l0 -500 500 0 500 0 0 500 0 500 -500 0 -500 0 0 -500z m696
333 l184 -108 0 -225 0 -225 -185 -108 c-102 -59 -190 -107 -195 -107 -6 0
-94 48 -195 107 l-185 108 0 225 0 225 183 107 c100 59 188 107 195 107 7 1
96 -47 198 -106z"/>
<path d="M343 803 c-84 -49 -152 -90 -153 -93 0 -9 294 -175 310 -175 16 0
310 166 310 175 0 5 -287 173 -305 178 -5 1 -78 -37 -162 -85z"/>
<path d="M160 488 l0 -183 124 -73 c68 -39 140 -81 160 -93 l36 -21 0 184 0
184 -137 79 c-76 43 -148 85 -160 93 l-23 14 0 -184z"/>
<path d="M678 577 l-158 -92 0 -183 0 -184 33 19 c17 10 89 52 160 93 l127 74
0 183 c0 101 -1 183 -2 182 -2 0 -74 -41 -160 -92z"/>
</g>
</svg>
